<?xml version="1.0" encoding="utf-8"?><svg viewBox="0 0 27 29" xmlns="http://www.w3.org/2000/svg" xmlns:xlink="http://www.w3.org/1999/xlink"><style>:root>svg{display:none}:root>svg:target{display:block}</style><svg viewBox="0 0 14 17" id="address_book" xmlns="http://www.w3.org/2000/svg"><path d="M1.004 5.054H.471a.47.47 0 000 .942h.533v-.942zm0 7.533H.471a.47.47 0 000 .942h.533v-.942zm0-2.511H.471a.47.47 0 000 .942h.533v-.942zm0-2.511H.471a.47.47 0 000 .942h.533v-.942zm0-5.022H.471a.47.47 0 000 .941h.533v-.941zM4.018 0h-1.6c-.78 0-1.413.634-1.413 1.413v1.13H2.48a.47.47 0 010 .941H1.005v1.57H2.48a.47.47 0 010 .942H1.005v1.569H2.48a.47.47 0 010 .942H1.005v1.57H2.48a.47.47 0 010 .94H1.005v1.57H2.48a.47.47 0 010 .942H1.005v1.13c0 .78.634 1.413 1.412 1.413h1.601V0zm3.923 3.484h2.135v1.068H7.94V3.484z"/><path d="M12.588 0H4.96v16.072h7.628c.779 0 1.412-.634 1.412-1.413V1.413C14 .633 13.367 0 12.588 0zm-1.57 5.022a.47.47 0 01-.47.471H7.47a.47.47 0 01-.47-.47v-2.01c0-.26.21-.47.47-.47h3.076c.26 0 .471.21.471.47v2.01z"/></svg><svg viewBox="0 0 10 15" id="arrow_right" xmlns="http://www.w3.org/2000/svg"><path d="M1 1l8 6.5L1 14"/></svg><svg viewBox="0 0 19 12" id="arrow_top" xmlns="http://www.w3.org/2000/svg"><path d="M1 10.5L9.5 2l8.5 8.5" stroke-width="2"/></svg><svg viewBox="0 0 19 12" id="arrow_top2" xmlns="http://www.w3.org/2000/svg"><path d="M1 10.5L9.5 2l8.5 8.5" stroke-width="2"/></svg><svg viewBox="0 0 14 14" id="cart" xmlns="http://www.w3.org/2000/svg"><path d="M10.667 10.667a1.333 1.333 0 100 2.667 1.333 1.333 0 000-2.667zM0 0v1.333h1.333l2.4 5.06-.906 1.634c-.1.186-.16.406-.16.64A1.333 1.333 0 004 10h8V8.667H4.28a.167.167 0 01-.167-.167c0-.033.007-.06.02-.08l.6-1.087H9.7c.5 0 .94-.28 1.167-.686l2.386-4.314a.843.843 0 00.08-.333.667.667 0 00-.666-.667h-9.86L2.18 0H0zm4 10.667a1.333 1.333 0 100 2.667 1.333 1.333 0 000-2.667z"/><path d="M7.5 2.667v3M6 4.167h3" stroke-width=".5"/></svg><svg viewBox="0 0 14 12" id="check" xmlns="http://www.w3.org/2000/svg"><path d="M5.075 7.89L2.551 5.86A1.455 1.455 0 10.767 8.158L5.5 11.702l7.698-8.319a1.446 1.446 0 00-2.122-1.965l-6 6.472z"/></svg><svg viewBox="0 0 9 9" id="clear" xmlns="http://www.w3.org/2000/svg"><path d="M8 1L1 8m0-7l7 7" stroke-width="2"/></svg><svg viewBox="0 0 16 16" id="exit" xmlns="http://www.w3.org/2000/svg"><path d="M11.207 3.48V.782A.784.784 0 0010.426 0H.782A.784.784 0 000 .782v11.051c0 .287.17.56.417.69L6.36 15.6c.26.13.573-.052.573-.351V12.25h3.493c.43 0 .781-.352.781-.782V7.194H9.644v3.101c0 .222-.17.391-.391.391H6.946V4.053c0-.287-.17-.56-.417-.69l-3.506-1.8h6.23c.221 0 .39.17.39.39v1.539h1.564V3.48z"/><path d="M13.215 2.202l2.541 2.542a.78.78 0 010 1.133L13.215 8.42c-.326.325-.821.338-1.147.013-.313-.313-.274-.834.026-1.147l1.147-1.134H8.797a.771.771 0 01-.586-.26c-.365-.392-.274-1.082.195-1.343a.835.835 0 01.391-.104h4.444S12.107 3.31 12.094 3.31c-.3-.3-.339-.834-.026-1.134.313-.312.821-.3 1.147.026z"/></svg><svg viewBox="0 0 8 15" id="facebook" xmlns="http://www.w3.org/2000/svg"><path fill-rule="evenodd" clip-rule="evenodd" d="M4.744 15V8.622h2.178l.311-2.49H4.744V4.579c0-.7.233-1.244 1.244-1.244H7.31V1.078C7 1.078 6.222 1 5.367 1a3 3 0 00-3.189 3.267v1.866H0v2.489h2.178V15h2.566z"/></svg><svg viewBox="0 0 16 15" id="favorites" xmlns="http://www.w3.org/2000/svg"><path d="M8 2.782l-.405-.56c-.274-.38-.582-.7-.917-.959A3.525 3.525 0 004.47.5c-1.098 0-2.1.438-2.833 1.232L8 2.782zm0 0l.405-.56M8 2.782l.405-.56m0 0c.275-.38.582-.7.917-.959A3.525 3.525 0 0111.53.5c1.098 0 2.1.438 2.833 1.232.726.787 1.137 1.875 1.137 3.076 0 1.21-.444 2.34-1.472 3.58-.935 1.128-2.288 2.283-3.911 3.666l-.015.012c-.547.467-1.168.996-1.813 1.56a.438.438 0 01-.578 0 187.98 187.98 0 00-1.825-1.57l-.002-.001m2.521-9.833l-2.521 9.833m0 0C4.26 10.67 2.907 9.515 1.972 8.388.944 7.148.5 6.018.5 4.808c0-1.2.411-2.289 1.137-3.076l4.247 10.323z"/></svg><svg viewBox="0 0 16 16" id="header_cart" xmlns="http://www.w3.org/2000/svg"><path d="M12.8 12.8a1.6 1.6 0 100 3.2 1.6 1.6 0 000-3.2zM0 0v1.6h1.6l2.88 6.072-1.088 1.96a1.63 1.63 0 00-.192.768A1.6 1.6 0 004.8 12h9.6v-1.6H5.136a.2.2 0 01-.2-.2.17.17 0 01.024-.096L5.68 8.8h5.96c.6 0 1.128-.336 1.4-.824L15.904 2.8c.056-.128.096-.264.096-.4a.8.8 0 00-.8-.8H3.368L2.616 0H0zm4.8 12.8a1.6 1.6 0 100 3.2 1.6 1.6 0 000-3.2z"/></svg><svg viewBox="0 0 27 29" id="header_down" xmlns="http://www.w3.org/2000/svg"><circle cx="13.5" cy="5.5" r="4" stroke-width="3"/><path d="M2 17l11.5 9L25 17" stroke-width="4"/></svg><svg viewBox="0 0 16 15" id="header_favorites" xmlns="http://www.w3.org/2000/svg"><path d="M14.73 1.393A4.302 4.302 0 0011.53 0c-.923 0-1.769.292-2.514.868A5.14 5.14 0 008 1.929 5.14 5.14 0 006.984.868 4.025 4.025 0 004.47 0a4.303 4.303 0 00-3.2 1.393C.45 2.281 0 3.493 0 4.808 0 6.162.504 7.4 1.587 8.707c.968 1.168 2.36 2.354 3.972 3.728.55.47 1.175 1.001 1.822 1.567a.938.938 0 001.237 0 186.14 186.14 0 011.823-1.567c1.612-1.374 3.004-2.56 3.972-3.728C15.496 7.4 16 6.162 16 4.808c0-1.314-.45-2.527-1.27-3.415z"/></svg><svg viewBox="0 0 16 16" id="header_searh" xmlns="http://www.w3.org/2000/svg"><path d="M5.943 0a5.943 5.943 0 015.943 5.943c0 1.472-.54 2.825-1.427 3.867l.247.247h.723L16 14.63 14.629 16l-4.572-4.571v-.723l-.247-.247a5.957 5.957 0 01-3.867 1.427A5.943 5.943 0 115.943 0zm0 1.829a4.097 4.097 0 00-4.114 4.114 4.097 4.097 0 004.114 4.114 4.097 4.097 0 004.114-4.114 4.097 4.097 0 00-4.114-4.114z"/></svg><svg viewBox="0 0 16 16" id="header_user" xmlns="http://www.w3.org/2000/svg"><path d="M8 0a4 4 0 110 8 4 4 0 010-8zm0 10c4.42 0 8 1.79 8 4v2H0v-2c0-2.21 3.58-4 8-4z"/></svg><svg viewBox="0 0 16 16" id="instagram" xmlns="http://www.w3.org/2000/svg"><path fill-rule="evenodd" clip-rule="evenodd" d="M8 2.244c.934-.035 1.87-.009 2.8.078.451-.006.9.073 1.322.233.582.271 1.05.74 1.322 1.322.16.422.24.871.234 1.323 0 .7.078.933.078 2.8.035.934.009 1.87-.078 2.8.006.451-.073.9-.233 1.322a2.732 2.732 0 01-1.322 1.322c-.422.16-.87.239-1.322.233-.7 0-.933.078-2.8.078a21.47 21.47 0 01-2.8-.078c-.451.006-.9-.073-1.322-.233a2.732 2.732 0 01-1.322-1.322c-.16-.422-.24-.87-.235-1.322 0-.7-.078-.933-.078-2.8-.035-.934-.009-1.87.078-2.8-.006-.451.073-.9.233-1.322.136-.289.32-.552.545-.778.183-.272.46-.466.778-.544.422-.16.87-.24 1.322-.234.93-.087 1.866-.113 2.8-.078zM8 1a22.981 22.981 0 00-2.878.078 4.8 4.8 0 00-1.711.31 3.045 3.045 0 00-1.244.779 3.045 3.045 0 00-.778 1.244 3.544 3.544 0 00-.311 1.71A22.981 22.981 0 001 8a23.04 23.04 0 00.078 2.878 4.8 4.8 0 00.311 1.71c.154.473.421.9.778 1.245.345.357.772.624 1.244.778a4.799 4.799 0 001.711.31A22.85 22.85 0 008 15c.96.034 1.921.008 2.878-.078a4.799 4.799 0 001.711-.311 3.264 3.264 0 002.022-2.022 4.799 4.799 0 00.311-1.711C14.922 10.1 15 9.867 15 8a23.04 23.04 0 00-.078-2.878 4.799 4.799 0 00-.311-1.711 3.046 3.046 0 00-.778-1.244 3.045 3.045 0 00-1.244-.778 4.8 4.8 0 00-1.711-.311A22.981 22.981 0 008 1zm0 3.422A3.52 3.52 0 004.422 8 3.578 3.578 0 108 4.422zm0 5.91A2.29 2.29 0 015.667 8 2.292 2.292 0 018 5.667 2.292 2.292 0 0110.333 8 2.29 2.29 0 018 10.333zm3.733-6.921a.856.856 0 10.856.856.863.863 0 00-.856-.856z"/></svg><svg viewBox="0 0 16 15" id="naira" xmlns="http://www.w3.org/2000/svg"><path d="M13.35 5.82h2.177v1.485H13.35V8.75h2.177v1.484H13.35V15h-1.895L8.34 10.234H4.297V15H2.422v-4.766H.302V8.75h2.12V7.305H.302V5.82h2.12V.781h1.875l3.29 5.04h3.897V.78h1.866v5.04zM4.297 8.75h3.076l-.947-1.445h-2.13V8.75zm5.195 0h1.992V7.305h-2.93l.938 1.445zM4.297 5.82h1.162L4.297 4.043V5.82zm7.187 5.967v-1.553H10.47l1.015 1.553z"/></svg><svg viewBox="0 0 14 14" id="orders" xmlns="http://www.w3.org/2000/svg"><path d="M13.087 2.715h-1.02c.135-.213.224-.452.25-.704a1.796 1.796 0 00-1.07-1.852 1.79 1.79 0 00-1.95.314L8.01 1.639a1.366 1.366 0 00-2.023.002L4.7.473A1.79 1.79 0 002.748.159a1.796 1.796 0 00-1.067 1.852c.025.252.114.491.248.704H.913A.913.913 0 000 3.628v1.37c0 .251.204.456.457.456h13.086A.457.457 0 0014 4.997v-1.37a.913.913 0 00-.913-.912zM5.63 2.562v.153H3.483a.9.9 0 01-.873-1.12A.896.896 0 013.104 1a.879.879 0 01.983.149L5.63 2.548v.013zm5.78-.673c-.034.475-.462.826-.938.826H8.37v-.169L9.89 1.17c.233-.212.56-.311.863-.221.434.13.69.499.657.941zM.913 6.367v6.695c0 .505.409.914.913.914h4.261v-7.61H.913zm7 0v7.609h4.26a.913.913 0 00.914-.914V6.367H7.913z"/></svg><svg viewBox="0 0 14 12" id="twitter" xmlns="http://www.w3.org/2000/svg"><path fill-rule="evenodd" clip-rule="evenodd" d="M4.433 11.356A8.096 8.096 0 0012.6 3.19V2.8A6.324 6.324 0 0014 1.322a6.458 6.458 0 01-1.633.467A3.026 3.026 0 0013.611.233a7.133 7.133 0 01-1.789.7A2.778 2.778 0 009.722 0a2.922 2.922 0 00-2.878 2.878c-.018.21.009.422.078.622A8.041 8.041 0 011.011.467c-.256.45-.39.96-.389 1.478a3.09 3.09 0 001.244 2.411 2.622 2.622 0 01-1.322-.389 2.843 2.843 0 002.333 2.8 2.4 2.4 0 01-.778.078 1.324 1.324 0 01-.544-.078A2.947 2.947 0 004.277 8.79 5.872 5.872 0 01.7 10.033a2.154 2.154 0 01-.7-.078 7.34 7.34 0 004.433 1.4"/></svg></svg>